# xmcd
#
# Track frame offsets:
#	150
#	12342
#	24008
#	38098
#	54030
#	73898
#	93594
#	108190
#	123653
#	144844
#	161060
#	180320
#	191817
#	214768
#	235417
#
# Disc length: 3235 seconds
#
# Revision: 2
# Processed by: cddbd v1.5.1PL2 Copyright (c) Steve Scherf et al.
# Submitted via: audiograbber 1.83.01
#
DISCID=c40ca10f
DTITLE=Dusty Brothers - Walk Softly
DYEAR=1900
DGENRE=Country
TTITLE0=High Cotton
TTITLE1=You can depend on me
TTITLE2=Tequilla sunrise
TTITLE3=Knockin' on heavens door
TTITLE4=Fast movin' train
TTITLE5=Take it easy
TTITLE6=Oh lonesome me
TTITLE7=Achy breaky heart
TTITLE8=The bluest eyes in Texas
TTITLE9=Ole bough road
TTITLE10=You ain't just whistlin' dixie
TTITLE11=All the gold in California
TTITLE12=Fallin' again
TTITLE13=Walk softly
TTITLE14=Amacing graze
EXTD=
EXTT0=
EXTT1=
EXTT2=
EXTT3=
EXTT4=
EXTT5=
EXTT6=
EXTT7=
EXTT8=
EXTT9=
EXTT10=
EXTT11=
EXTT12=
EXTT13=
EXTT14=
PLAYORDER=
